PathFileType	4	(X/Y/Z)	/Users/niels/Desktop/University/Third Semester/Perception and Action/Exam/Gymnastics Motion Tracking/Code for Gym Tracking/Analyzed Data/Webcam_Backflip/id8_1_baseline_Sports2D/id8_1_baseline_Sports2D_px_person00.trc
DataRate	CameraRate	NumFrames	NumMarkers	Units	OrigDataRate	OrigDataStartFrame	OrigNumFrames
29.714285714285715	29.714285714285715	10	22	m	29.714285714285715	39	105
Frame#	Time	Hip			RHip			RKnee			RAnkle			RBigToe			RSmallToe			RHeel			LHip			LKnee			LAnkle			LBigToe			LSmallToe			LHeel			Neck			Head			Nose			RShoulder			RElbow			RWrist			LShoulder			LElbow			LWrist		
		X1	Y1	Z1	X2	Y2	Z2	X3	Y3	Z3	X4	Y4	Z4	X5	Y5	Z5	X6	Y6	Z6	X7	Y7	Z7	X8	Y8	Z8	X9	Y9	Z9	X10	Y10	Z10	X11	Y11	Z11	X12	Y12	Z12	X13	Y13	Z13	X14	Y14	Z14	X15	Y15	Z15	X16	Y16	Z16	X17	Y17	Z17	X18	Y18	Z18	X19	Y19	Z19	X20	Y20	Z20	X21	Y21	Z21	X22	Y22	Z22
39	1.3125	0.9643663321921347	-0.5237300108389603	0.0	0.9654054270570896	-0.5219775245834923	0.0	1.0122808990157612	-0.7317897210443329	0.0	0.9659535412011131	-0.9487559750898891	0.0	1.0560342118469939	-0.9904790027168173	0.0	1.031638550838569	-0.9985930185636162	0.0	0.9385051290951013	-0.9759718533811255	0.0	0.9657877580489992	-0.5193903114369159	0.0	1.0099594052917635	-0.7262623484828477	0.0	0.9745098452441724	-0.9250550947085749	0.0	1.0774377584679482	-0.9640281832143964	0.0	1.059407875656255	-0.9559701241113694	0.0	0.943938509963121	-0.9532487347151608	0.0	1.079971278669855	-0.24758079021474064	0.0	1.1434306403797876	-0.12719070605278832	0.0	1.1483435432853613	-0.20379240380298513	0.0	1.0570911505696683	-0.2750977931904159	0.0	1.0200177508762207	-0.4346395242950713	0.0	0.989946675137231	-0.5801646425912423	0.0	1.0586218349126482	-0.2807934475499111	0.0	1.020739971999353	-0.4239172873718498	0.0	0.9928409427604028	-0.55751769140252	0.0
40	1.346153846153846	0.9570922859619575	-0.5262718974074206	0.0	0.9586482738670133	-0.5241043566664223	0.0	1.0156467848332016	-0.7310716168880537	0.0	0.9661648300370612	-0.9478798571059489	0.0	1.0561778772156627	-0.9907653389605805	0.0	1.0312057736775906	-0.9990585159635025	0.0	0.9381550348733397	-0.9747663154598182	0.0	0.9601842304169146	-0.5205060577352423	0.0	1.012086773260357	-0.7258985776506087	0.0	0.9734124485942862	-0.9241553148387364	0.0	1.0764471927460675	-0.9655899012966623	0.0	1.0556962337660072	-0.9580894948783979	0.0	0.9425477181204344	-0.9535123520778147	0.0	1.088389516310156	-0.25742071621786766	0.0	1.1580318898002728	-0.13845468595568244	0.0	1.1595184609007043	-0.21505817531436	0.0	1.0646943417403278	-0.2844392292623554	0.0	1.0163891622179035	-0.44265638122792544	0.0	0.9765124711950539	-0.588694320577968	0.0	1.0643778271900568	-0.2896623381885231	0.0	1.0177039404849852	-0.4317157898134211	0.0	0.9793383047244971	-0.5639621480840007	0.0
41	1.3798076923076923	0.950198184179764	-0.5314678624831731	0.0	0.9522735176089568	-0.5291740027578976	0.0	1.0211484190423301	-0.7322985918953531	0.0	0.9661977483931617	-0.9482827680043846	0.0	1.056652069889007	-0.9919653241947681	0.0	1.0310075062182176	-1.0005221524480612	0.0	0.9378032690087438	-0.9746590703238825	0.0	0.9550718551429068	-0.5242831976408291	0.0	1.016408189098446	-0.7272975015427942	0.0	0.971939379137573	-0.9249239962477269	0.0	1.075092669748984	-0.968494912660133	0.0	1.0515275701477507	-0.9619032877798478	0.0	0.9405952264624081	-0.9550065988667713	0.0	1.0950422624621967	-0.2696323817775444	0.0	1.1695094578035523	-0.15200931373110535	0.0	1.1690212199211616	-0.22813087350714673	0.0	1.070458253574499	-0.29759259631890767	0.0	1.0128355974825278	-0.4553490708544665	0.0	0.9679775322691505	-0.6019842839309407	0.0	1.068963515974663	-0.3010562590004132	0.0	1.016321811931731	-0.4430643107087279	0.0	0.9722322420005679	-0.5741914132157311	0.0
42	1.4134615384615383	0.9444252859149228	-0.5393618141205355	0.0	0.9467753050024983	-0.5374211029626251	0.0	1.0285889098123098	-0.736112557199796	0.0	0.9658885594225154	-0.9500457017467	0.0	1.0571516652778443	-0.9941650178755052	0.0	1.0307811669012716	-1.0029718867062927	0.0	0.9373180446716294	-0.9757591595977276	0.0	0.9508133944902536	-0.531276849111144	0.0	1.0228560770752724	-0.7310855031403409	0.0	0.9700852234427321	-0.9276231460575936	0.0	1.0737147363166644	-0.9728110297857744	0.0	1.0487530218077652	-0.9674099016272001	0.0	0.9382993918295439	-0.9577510416483594	0.0	1.0992725030407615	-0.2833354783277246	0.0	1.1761067962624276	-0.16643841390229855	0.0	1.1757418291021322	-0.2416126756013907	0.0	1.073792877079665	-0.3135856563775957	0.0	1.0103814201462904	-0.4723314304922169	0.0	0.9671639374590074	-0.6194433844089883	0.0	1.0719120559492712	-0.31427137275492095	0.0	1.0178544687525886	-0.45766533921756647	0.0	0.9739898453455421	-0.5879531718989098	0.0
43	1.4471153846153846	0.940569904364044	-0.5492376111906774	0.0	0.942610936429592	-0.5481585800429034	0.0	1.0373212090055952	-0.7426107308836825	0.0	0.9651242654373107	-0.9528027211858596	0.0	1.0573269064442439	-0.997089301030875	0.0	1.0302665536400692	-1.0060279687271887	0.0	0.9366017962264301	-0.977843671690102	0.0	0.9479207860303175	-0.5411985782901019	0.0	1.0311248682245517	-0.7372945028013052	0.0	0.9682290287312524	-0.9318103741831688	0.0	1.0731320059047649	-0.977994974428547	0.0	1.050312604111977	-0.9738365129110792	0.0	0.9361589918722875	-0.9611214969860907	0.0	1.1005055040208753	-0.2970700451277381	0.0	1.1765486419201903	-0.17980445840360823	0.0	1.1786514489790536	-0.25383762492466594	0.0	1.0744470185776325	-0.33042413360934697	0.0	1.0108514418071282	-0.4914908506484741	0.0	0.9771895104000607	-0.6379739453664978	0.0	1.0727673518306218	-0.327956361558565	0.0	1.0233713421927646	-0.47397135947074265	0.0	0.9868510970127942	-0.6028897181450297	0.0
44	1.4807692307692306	0.9393702987078965	-0.5596904913531303	0.0	0.9402497396166087	-0.5598309382480536	0.0	1.0464042725008174	-0.7512430731263261	0.0	0.9639610840267797	-0.9559538335833205	0.0	1.0570254372876875	-1.0002482829367672	0.0	1.0294267103494374	-1.0091440886081697	0.0	0.9356944098603492	-0.9805135338942371	0.0	0.9472409462188472	-0.5527183611260669	0.0	1.0406856916664853	-0.7452861877104167	0.0	0.9669845502040606	-0.9364067942688473	0.0	1.0742279000374333	-0.9829057209545707	0.0	1.0583261823468577	-0.9798078961376234	0.0	0.9347694440893607	-0.9640238485560426	0.0	1.0983688177312436	-0.30896130497623125	0.0	1.1704547301144559	-0.19002042697712648	0.0	1.177096776799686	-0.26320178057964744	0.0	1.0725155775868727	-0.3454518898048552	0.0	1.0166440437082604	-0.5087986433990196	0.0	1.000722923825434	-0.6516565494100892	0.0	1.0712504199631545	-0.3402265591162131	0.0	1.0336000232935385	-0.48888921474444963	0.0	1.0118623820991048	-0.6143591404292422	0.0
45	1.5144230769230769	0.9411943050848076	-0.5689121194877855	0.0	0.9401444377097541	-0.5703579335586098	0.0	1.0548382700992123	-0.7606914296159129	0.0	0.9626832716053556	-0.9588671858212686	0.0	1.056390436127754	-1.0031287620783638	0.0	1.0285512305590179	-1.011816898016595	0.0	0.934789460063512	-0.9832493045858827	0.0	0.9496816589442344	-0.5637247245748211	0.0	1.0505365057069378	-0.7537054959606431	0.0	0.966730254494093	-0.9401353857735267	0.0	1.0768983230386655	-0.9862295789835064	0.0	1.0712391132464183	-0.9839711042333503	0.0	0.9344142068131768	-0.9654396088466063	0.0	1.092875844197546	-0.3170360984352277	0.0	1.158636314151687	-0.19531242620173533	0.0	1.1710839581167072	-0.2682656205241564	0.0	1.068297212761803	-0.356007724381066	0.0	1.0298666573615753	-0.5188081226579646	0.0	1.03868532988844	-0.6524220759382232	0.0	1.0673150762839643	-0.34897602784453585	0.0	1.0486586043105761	-0.49787489137060986	0.0	1.047397651580106	-0.6158613794609501	0.0
46	1.548076923076923	0.9458254548324031	-0.5749515391149591	0.0	0.9426197371063857	-0.5774770288282385	0.0	1.06156972856523	-0.768940829374861	0.0	0.9616966781009475	-0.9609351540009232	0.0	1.055633980848866	-1.0052791732045698	0.0	1.0279915707030882	-1.0136603832650102	0.0	0.9341668628634875	-0.9853936300182726	0.0	0.9553845240697298	-0.571787425217547	0.0	1.0589804027132306	-0.7606070957794461	0.0	0.9672793741275438	-0.9420878654269331	0.0	1.0794355521799865	-0.9870840728254884	0.0	1.083022201143064	-0.98554540565124	0.0	0.9348539701047889	-0.965017546041381	0.0	1.0845810081063016	-0.3194950249127512	0.0	1.1431036436228257	-0.19456369510888658	0.0	1.1614764402495412	-0.26784207802868903	0.0	1.062306128897135	-0.3599045443118297	0.0	1.0511174848521583	-0.5158160584357359	0.0	1.0889244687991855	-0.6319810438689571	0.0	1.0610024022011006	-0.352205709936501	0.0	1.0675208679045407	-0.495801534151688	0.0	1.0882425398356566	-0.6006113338022658	0.0
47	1.5817307692307692	0.9525573073315594	-0.5758172769046792	0.0	0.9477021872706366	-0.5789317320914928	0.0	1.0653273369556802	-0.7736482263803606	0.0	0.961452992139545	-0.9614865145044162	0.0	1.054758227092339	-1.0061843267684236	0.0	1.0278457446836369	-1.0142610847184428	0.0	0.9342674510883848	-0.9861095062755868	0.0	0.9630695392092731	-0.5744158409261231	0.0	1.0639108672553768	-0.7637086013851483	0.0	0.9680690540323401	-0.941767209896857	0.0	1.0797773096488066	-0.9850680054278185	0.0	1.0874169474360307	-0.9842340533517837	0.0	0.935645582135262	-0.9630066089802249	0.0	1.0746451400426185	-0.31489560288819135	0.0	1.1266601986255487	-0.18736489921901076	0.0	1.1499735813044418	-0.2611485921414288	0.0	1.055524594967073	-0.355555008781597	0.0	1.0787531790657268	-0.49546749596157363	0.0	1.1456970456153195	-0.5848520460297778	0.0	1.0523568731792674	-0.34822349471003783	0.0	1.0875819587202311	-0.47860830039812524	0.0	1.126433606658248	-0.564436005248623	0.0
48	1.6153846153846154	0.9604611288754966	-0.5697131647068676	0.0	0.9550559892132543	-0.572793827776539	0.0	1.064827533937845	-0.7726622592364035	0.0	0.9624773977483971	-0.9596184157445248	0.0	1.0536386924429253	-1.0050929593711675	0.0	1.0280606586105185	-1.0129759737698303	0.0	0.9357968745656967	-0.9843359310810216	0.0	0.9704860191101341	-0.5693696643400119	0.0	1.0636509044042302	-0.7606888428632471	0.0	0.9687496056125359	-0.9384016389789369	0.0	1.077367043183614	-0.9797058025502214	0.0	1.0834563973724078	-0.9796485394704918	0.0	0.9366667223855738	-0.9593190759010062	0.0	1.064703354682084	-0.3023555940337083	0.0	1.1122722395387696	-0.17395109146689833	0.0	1.1387583250666795	-0.24788688575118253	0.0	1.049456268735824	-0.34197233579313285	0.0	1.1092096038750363	-0.4560588680113322	0.0	1.2006168019427	-0.5108987553537359	0.0	1.0415354450288794	-0.335793038139334	0.0	1.104800385299253	-0.4449771329939097	0.0	1.1538235498002005	-0.5083905014015508	0.0
